<svg version="1.1" xmlns="http://www.w3.org/2000/svg" xmlns:xlink="http://www.w3.org/1999/xlink" width="324.60193" height="245.93558" viewBox="95.21148,293.99048,324.60193,245.93558"><g fill="none" fill-rule="nonzero" stroke="none" stroke-width="none" stroke-linecap="round" stroke-linejoin="round" stroke-miterlimit="10" stroke-dasharray="" stroke-dashoffset="0" font-family="none" font-weight="none" font-size="none" text-anchor="none" style="mix-blend-mode: normal"><g data-paper-data="{&quot;vgx&quot;:{&quot;signed&quot;:true,&quot;selected&quot;:true,&quot;unsigned&quot;:false,&quot;contained&quot;:false,&quot;visible&quot;:true,&quot;id&quot;:&quot;9vuyz5sht_170785979924717527&quot;,&quot;changeset&quot;:&quot;krlvq11kr_170785979924717528&quot;,&quot;staticid&quot;:&quot;y1nazt9vg_170785979924717529&quot;,&quot;name&quot;:&quot;Group&quot;,&quot;owner&quot;:null,&quot;layer&quot;:false,&quot;class&quot;:&quot;item&quot;,&quot;type&quot;:&quot;default&quot;,&quot;ui&quot;:false,&quot;actor&quot;:true,&quot;props&quot;:{},&quot;locked&quot;:false,&quot;container&quot;:false,&quot;rotation&quot;:{&quot;value&quot;:0}},&quot;v_data&quot;:null}" id="Group 1" stroke="#000000" stroke-width="12"><path d="M101.21148,377.87705c13.5757,-0.15971 78.5996,53.04247 78.2512,78.07146c0.6686,-26.17852 60.59793,-77.70213 78.43525,-77.88657c-17.68421,0.18455 -78.25077,-47.74881 -78.2512,-78.07146c-0.17361,30.81346 -64.74093,77.90272 -78.43525,77.88657z" id="Path 3 1 1" fill="#ff9722"/><path d="M179.47817,533.92606c-38.74786,0 -77.49572,-38.74786 -77.49572,-77.4957v-0.96369c0,-22.09571 12.59992,-44.19141 30.61475,-59.10208c22.19249,17.74516 47.08138,44.07491 46.86548,59.58537c0.66858,-26.17807 60.5959,-77.70038 78.43433,-77.88655c-0.48568,0.00502 -1.00373,-0.02625 -1.55194,-0.09245h79.97262c38.74786,0 77.49572,38.74786 77.49572,77.4957v0.96369c0,38.74786 -38.74786,77.4957 -77.49572,77.4957z" id="Path 1 1" fill="#ff3335"/></g><g data-paper-data="{&quot;vgx&quot;:{&quot;signed&quot;:true,&quot;selected&quot;:true,&quot;unsigned&quot;:false,&quot;contained&quot;:false,&quot;visible&quot;:true,&quot;id&quot;:&quot;g8b6yxzg6_17078595819206005&quot;,&quot;changeset&quot;:&quot;lugs3xs6d_170785984988719501&quot;,&quot;staticid&quot;:&quot;ucq6jmx6n_17078595819206007&quot;,&quot;name&quot;:&quot;Group&quot;,&quot;owner&quot;:null,&quot;layer&quot;:false,&quot;class&quot;:&quot;item&quot;,&quot;type&quot;:&quot;default&quot;,&quot;ui&quot;:false,&quot;actor&quot;:true,&quot;props&quot;:{},&quot;locked&quot;:false,&quot;container&quot;:false,&quot;rotation&quot;:{&quot;value&quot;:0}},&quot;v_data&quot;:null}" id="Group 1" fill="#000000" stroke="#ff3335" stroke-width="0"><path d="M237.71222,451.85041c0,-12.28452 10.0674,-22.2431 22.48618,-22.2431c12.41878,0 22.48618,9.95857 22.48618,22.2431c0,12.28452 -10.0674,22.2431 -22.48618,22.2431c-12.41878,0 -22.48618,-9.95857 -22.48618,-22.2431z" id="Path 4 1"/><path d="M319.39465,451.85041c0,-12.28452 10.0674,-22.2431 22.48618,-22.2431c12.41878,0 22.48618,9.95857 22.48618,22.2431c0,12.28452 -10.0674,22.2431 -22.48618,22.2431c-12.41878,0 -22.48618,-9.95857 -22.48618,-22.2431z" id="Path 2 2 1"/></g></g></svg>